# xmcd CD database file
#
# Track frame offsets:
#	150
#	13756
#	27225
#	41820
#	56676
#	70653
#	83489
#	97868
#	112395
#	125563
#	139416
#	151892
#	166144
#	178847
#	191730
#	207934
#	221473
#	240267
#	258251
#	272220
#	290720
#	303868
#
# Disc length: 4293 seconds
#
# Revision: 0
# Processed by: cddbd v1.5.2PL0 Copyright (c) Steve Scherf et al.
# Submitted via: CDex 1.70beta2
#
DISCID=3e10c316
DTITLE=Sidney Bichet - Giants of Jazz 1
DYEAR=1900
DGENRE=Jazz
TTITLE0=Wild Cat Blues: Clarence Williams' Blue Five
TTITLE1=Kansas City Man Blues: Clarence Williams' Blue Five 
TTITLE2=Texas Moaner Blues: Clarence Williams' Blue Five
TTITLE3=I'm a Little Blackbird Looking for a Bluebird: Clarence Williams' Blue Five 
TTITLE4=Cake Walking Babies from Home: Red Onion Jazz Babies 
TTITLE5=Sweetie Dear: New Orleans Feetwarmers 
TTITLE6=I Found a New Baby: New Orleans Feetwarmers
TTITLE7=Lay Your Racket: New Orleans Feetwarmers
TTITLE8=Maple Leaf Rag: New Orleans Feetwarmers
TTITLE9=Shag: New Orleans Feetwarmers
TTITLE10=Blackstick: Noble Sissle's Swingsters
TTITLE11=When the Sun Sets Down South: Noble Sissle's Swingsters 
TTITLE12=I Am a Woman: Grant and Wilson
TTITLE13=What a Dream: Sidney Bechet and His Orchestra
TTITLE14=Really the Blues: Tommy Ladnier and His Orchestra
TTITLE15=Weary Blues: Tommy Ladnier and His Orchestra
TTITLE16=Summertime: Sidney Bechet Quintet
TTITLE17=Pounding Heart Blues: Port of Harlem Seven 
TTITLE18=Indian Summer: Sidney Bechet and His New Orleans Feetwarmers 
TTITLE19=Lonesome Blues: Sidney Bechet's Blue Note Quartet
TTITLE20=Bechet's Steady Rider: Sidney Bechet's Blue Note Quartet 
TTITLE21=Four or Five Times: Bechet Spanier Big Four
EXTD=
EXTT0=
EXTT1=
EXTT2=
EXTT3=
EXTT4=
EXTT5=
EXTT6=
EXTT7=
EXTT8=
EXTT9=
EXTT10=
EXTT11=
EXTT12=
EXTT13=
EXTT14=
EXTT15=
EXTT16=
EXTT17=
EXTT18=
EXTT19=
EXTT20=
EXTT21=
PLAYORDER=
